<svg width="340.492431640625px" height="61.4375px" xmlns="http://www.w3.org/2000/svg" viewBox="79.7537841796875 44.28125 340.492431640625 61.4375" preserveAspectRatio="xMidYMid"><defs><linearGradient id="editing-gradow-gradient" x1="0" x2="1" y1="0.5" y2="0.5" gradientUnits="objectBoundingBox"><stop offset="0" stop-color="#000000"></stop><stop offset="1" stop-color="#000000"></stop></linearGradient><filter id="editing-gradow-filter" x="-100%" y="-100%" width="300%" height="300%"><feFlood flood-color="rgba(0%,0%,0%,0)" result="flood"></feFlood><feComposite operator="in" in2="SourceAlpha" in="flood" result="shadow"></feComposite><feOffset dx="-4" dy="-4" in="SourceGraphic" result="offset-1"></feOffset><feOffset dx="4" dy="4" in="shadow" result="offset-2"></feOffset><feMerge><feMergeNode in="offset-2"></feMergeNode><feMergeNode in="offset-1"></feMergeNode></feMerge></filter></defs><g filter="url(#editing-gradow-filter)"><g transform="translate(131.28500080108643, 87.63000011444092)"><path d="M2.13 0L2.13-17.70L4.53-17.70L4.53-10.18L13.58-10.18L13.58-17.70L15.98-17.70L15.98 0L13.58 0L13.58-8.18L4.53-8.18L4.53 0L2.13 0ZM24.58-1.98L28.28-12.85L30.55-12.85L23.93 6.15L21.80 6.15L23.90 0L22.93 0L18.38-12.85L20.80-12.85L24.58-1.98ZM38.83-13.08L38.83-13.08Q41.50-13.08 42.99-11.41L42.99-11.41L42.99-11.41Q44.48-9.75 44.48-6.65L44.48-6.65L44.48-6.65Q44.48-3.43 42.71-1.61L42.71-1.61L42.71-1.61Q40.95 0.20 37.88 0.20L37.88 0.20L37.88 0.20Q36.43 0.20 35.20-0.15L35.20-0.15L35.20 6.13L32.85 6.13L32.85-12.85L34.75-12.85L35.05-11.30L35.05-11.30Q35.73-12.18 36.69-12.63L36.69-12.63L36.69-12.63Q37.65-13.08 38.83-13.08L38.83-13.08ZM37.85-1.65L37.85-1.65Q39.83-1.65 40.95-2.96L40.95-2.96L40.95-2.96Q42.08-4.28 42.08-6.65L42.08-6.65L42.08-6.65Q42.08-8.85 41.19-10.04L41.19-10.04L41.19-10.04Q40.30-11.23 38.68-11.23L38.68-11.23L38.68-11.23Q37.40-11.23 36.49-10.55L36.49-10.55L36.49-10.55Q35.58-9.88 35.20-8.68L35.20-8.68L35.20-2.02L35.20-2.02Q36.48-1.65 37.85-1.65L37.85-1.65ZM46.75-6.45L46.75-6.45Q46.75-9.60 48.33-11.34L48.33-11.34L48.33-11.34Q49.90-13.08 52.78-13.08L52.78-13.08L52.78-13.08Q55.60-13.08 56.86-11.39L56.86-11.39L56.86-11.39Q58.13-9.70 58.13-6.53L58.13-6.53L58.13-6.13L49.15-6.13L49.15-6.13Q49.20-3.95 50.18-2.80L50.18-2.80L50.18-2.80Q51.15-1.65 52.98-1.65L52.98-1.65L52.98-1.65Q53.98-1.65 54.90-1.89L54.90-1.89L54.90-1.89Q55.83-2.13 56.95-2.63L56.95-2.63L57.63-1.03L57.63-1.03Q56.35-0.38 55.20-0.09L55.20-0.09L55.20-0.09Q54.05 0.20 52.85 0.20L52.85 0.20L52.85 0.20Q49.95 0.20 48.35-1.55L48.35-1.55L48.35-1.55Q46.75-3.30 46.75-6.45L46.75-6.45ZM52.78-11.23L52.78-11.23Q51.30-11.23 50.41-10.38L50.41-10.38L50.41-10.38Q49.53-9.53 49.25-7.88L49.25-7.88L55.65-7.88L55.65-7.88Q55.48-9.60 54.78-10.41L54.78-10.41L54.78-10.41Q54.08-11.23 52.78-11.23L52.78-11.23ZM61.20-12.85L63.10-12.85L63.38-11.08L63.38-11.08Q64.73-13.08 66.93-13.08L66.93-13.08L66.93-13.08Q67.63-13.08 68.58-12.83L68.58-12.83L68.20-10.73L68.20-10.73Q67.13-10.98 66.53-10.98L66.53-10.98L66.53-10.98Q65.48-10.98 64.79-10.56L64.79-10.56L64.79-10.56Q64.10-10.15 63.55-9.18L63.55-9.18L63.55 0L61.20 0L61.20-12.85ZM76.80-17.70L76.80-17.70Q80.73-17.70 82.83-15.39L82.83-15.39L82.83-15.39Q84.93-13.08 84.93-8.90L84.93-8.90L84.93-8.90Q84.93-4.70 82.81-2.35L82.81-2.35L82.81-2.35Q80.70 0 76.80 0L76.80 0L71.08 0L71.08-17.70L76.80-17.70ZM76.80-2L76.80-2Q79.50-2 80.96-3.73L80.96-3.73L80.96-3.73Q82.43-5.45 82.43-8.90L82.43-8.90L82.43-8.90Q82.43-12.33 80.96-14.01L80.96-14.01L80.96-14.01Q79.50-15.70 76.80-15.70L76.80-15.70L73.48-15.70L73.48-2L76.80-2ZM94.18-13.08L94.18-13.08Q96.85-13.08 98.34-11.41L98.34-11.41L98.34-11.41Q99.83-9.75 99.83-6.65L99.83-6.65L99.83-6.65Q99.83-3.43 98.06-1.61L98.06-1.61L98.06-1.61Q96.30 0.20 93.23 0.20L93.23 0.20L93.23 0.20Q91.20 0.20 89.30-0.55L89.30-0.55L88.18-0.83L88.18-18.98L90.53-18.98L90.53-11.45L90.53-11.45Q91.88-13.08 94.18-13.08L94.18-13.08ZM93.20-1.65L93.20-1.65Q95.18-1.65 96.30-2.96L96.30-2.96L96.30-2.96Q97.43-4.28 97.43-6.65L97.43-6.65L97.43-6.65Q97.43-8.85 96.54-10.04L96.54-10.04L96.54-10.04Q95.65-11.23 94.03-11.23L94.03-11.23L94.03-11.23Q92.73-11.23 91.80-10.53L91.80-10.53L91.80-10.53Q90.88-9.83 90.53-8.60L90.53-8.60L90.53-2.02L90.53-2.02Q91.80-1.65 93.20-1.65L93.20-1.65ZM111.93-12.88L113.80-12.88L113.80 0.75L113.80 0.75Q113.80 6.28 107.95 6.28L107.95 6.28L107.95 6.28Q105.13 6.28 102.60 4.98L102.60 4.98L103.40 3.25L103.40 3.25Q104.75 3.93 105.73 4.17L105.73 4.17L105.73 4.17Q106.70 4.42 107.95 4.42L107.95 4.42L107.95 4.42Q109.83 4.42 110.64 3.59L110.64 3.59L110.64 3.59Q111.45 2.75 111.45 0.80L111.45 0.80L111.45-1.45L111.45-1.45Q110.10 0.20 107.78 0.20L107.78 0.20L107.78 0.20Q105.10 0.20 103.61-1.46L103.61-1.46L103.61-1.46Q102.13-3.13 102.13-6.23L102.13-6.23L102.13-6.23Q102.13-9.45 103.89-11.26L103.89-11.26L103.89-11.26Q105.65-13.08 108.73-13.08L108.73-13.08L108.73-13.08Q110.35-13.08 111.85-12.60L111.85-12.60L111.93-12.88ZM107.93-1.65L107.93-1.65Q109.23-1.65 110.16-2.36L110.16-2.36L110.16-2.36Q111.10-3.08 111.45-4.35L111.45-4.35L111.45-10.85L111.45-10.85Q110.18-11.23 108.75-11.23L108.75-11.23L108.75-11.23Q106.78-11.23 105.65-9.91L105.65-9.91L105.65-9.91Q104.53-8.60 104.53-6.23L104.53-6.23L104.53-6.23Q104.53-4.03 105.41-2.84L105.41-2.84L105.41-2.84Q106.30-1.65 107.93-1.65L107.93-1.65ZM129.98-17.70L129.98-17.70Q133.90-17.70 136-15.39L136-15.39L136-15.39Q138.10-13.08 138.10-8.90L138.10-8.90L138.10-8.90Q138.10-4.70 135.99-2.35L135.99-2.35L135.99-2.35Q133.88 0 129.98 0L129.98 0L124.25 0L124.25-17.70L129.98-17.70ZM129.98-2L129.98-2Q132.68-2 134.14-3.73L134.14-3.73L134.14-3.73Q135.60-5.45 135.60-8.90L135.60-8.90L135.60-8.90Q135.60-12.33 134.14-14.01L134.14-14.01L134.14-14.01Q132.68-15.70 129.98-15.70L129.98-15.70L126.65-15.70L126.65-2L129.98-2ZM140.38-6.45L140.38-6.45Q140.38-9.60 141.95-11.34L141.95-11.34L141.95-11.34Q143.53-13.08 146.40-13.08L146.40-13.08L146.40-13.08Q149.23-13.08 150.49-11.39L150.49-11.39L150.49-11.39Q151.75-9.70 151.75-6.53L151.75-6.53L151.75-6.13L142.78-6.13L142.78-6.13Q142.83-3.95 143.80-2.80L143.80-2.80L143.80-2.80Q144.78-1.65 146.60-1.65L146.60-1.65L146.60-1.65Q147.60-1.65 148.53-1.89L148.53-1.89L148.53-1.89Q149.45-2.13 150.58-2.63L150.58-2.63L151.25-1.03L151.25-1.03Q149.98-0.38 148.83-0.09L148.83-0.09L148.83-0.09Q147.68 0.20 146.48 0.20L146.48 0.20L146.48 0.20Q143.58 0.20 141.98-1.55L141.98-1.55L141.98-1.55Q140.38-3.30 140.38-6.45L140.38-6.45ZM146.40-11.23L146.40-11.23Q144.93-11.23 144.04-10.38L144.04-10.38L144.04-10.38Q143.15-9.53 142.88-7.88L142.88-7.88L149.28-7.88L149.28-7.88Q149.10-9.60 148.40-10.41L148.40-10.41L148.40-10.41Q147.70-11.23 146.40-11.23L146.40-11.23ZM160.83-13.08L160.83-13.08Q163.50-13.08 164.99-11.41L164.99-11.41L164.99-11.41Q166.48-9.75 166.48-6.65L166.48-6.65L166.48-6.65Q166.48-3.43 164.71-1.61L164.71-1.61L164.71-1.61Q162.95 0.20 159.88 0.20L159.88 0.20L159.88 0.20Q157.85 0.20 155.95-0.55L155.95-0.55L154.83-0.83L154.83-18.98L157.18-18.98L157.18-11.45L157.18-11.45Q158.53-13.08 160.83-13.08L160.83-13.08ZM159.85-1.65L159.85-1.65Q161.83-1.65 162.95-2.96L162.95-2.96L162.95-2.96Q164.08-4.28 164.08-6.65L164.08-6.65L164.08-6.65Q164.08-8.85 163.19-10.04L163.19-10.04L163.19-10.04Q162.30-11.23 160.68-11.23L160.68-11.23L160.68-11.23Q159.38-11.23 158.45-10.53L158.45-10.53L158.45-10.53Q157.53-9.83 157.18-8.60L157.18-8.60L157.18-2.02L157.18-2.02Q158.45-1.65 159.85-1.65L159.85-1.65ZM178.13-12.85L180.48-12.85L180.48 0L178.55 0L178.28-1.78L178.28-1.78Q176.60 0.23 173.93 0.23L173.93 0.23L173.93 0.23Q171.75 0.23 170.65-0.94L170.65-0.94L170.65-0.94Q169.55-2.10 169.55-4.35L169.55-4.35L169.55-12.85L171.90-12.85L171.90-4.53L171.90-4.53Q171.90-3 172.49-2.31L172.49-2.31L172.49-2.31Q173.08-1.63 174.38-1.63L174.38-1.63L174.38-1.63Q175.55-1.63 176.53-2.16L176.53-2.16L176.53-2.16Q177.50-2.70 178.13-3.65L178.13-3.65L178.13-12.85ZM193.48-12.88L195.35-12.88L195.35 0.75L195.35 0.75Q195.35 6.28 189.50 6.28L189.50 6.28L189.50 6.28Q186.68 6.28 184.15 4.98L184.15 4.98L184.95 3.25L184.95 3.25Q186.30 3.93 187.28 4.17L187.28 4.17L187.28 4.17Q188.25 4.42 189.50 4.42L189.50 4.42L189.50 4.42Q191.38 4.42 192.19 3.59L192.19 3.59L192.19 3.59Q193.00 2.75 193.00 0.80L193.00 0.80L193.00-1.45L193.00-1.45Q191.65 0.20 189.33 0.20L189.33 0.20L189.33 0.20Q186.65 0.20 185.16-1.46L185.16-1.46L185.16-1.46Q183.68-3.13 183.68-6.23L183.68-6.23L183.68-6.23Q183.68-9.45 185.44-11.26L185.44-11.26L185.44-11.26Q187.20-13.08 190.28-13.08L190.28-13.08L190.28-13.08Q191.90-13.08 193.40-12.60L193.40-12.60L193.48-12.88ZM189.48-1.65L189.48-1.65Q190.78-1.65 191.71-2.36L191.71-2.36L191.71-2.36Q192.65-3.08 193.00-4.35L193.00-4.35L193.00-10.85L193.00-10.85Q191.73-11.23 190.30-11.23L190.30-11.23L190.30-11.23Q188.33-11.23 187.20-9.91L187.20-9.91L187.20-9.91Q186.08-8.60 186.08-6.23L186.08-6.23L186.08-6.23Q186.08-4.03 186.96-2.84L186.96-2.84L186.96-2.84Q187.85-1.65 189.48-1.65L189.48-1.65ZM208.38-12.88L210.25-12.88L210.25 0.75L210.25 0.75Q210.25 6.28 204.40 6.28L204.40 6.28L204.40 6.28Q201.58 6.28 199.05 4.98L199.05 4.98L199.85 3.25L199.85 3.25Q201.20 3.93 202.18 4.17L202.18 4.17L202.18 4.17Q203.15 4.42 204.40 4.42L204.40 4.42L204.40 4.42Q206.28 4.42 207.09 3.59L207.09 3.59L207.09 3.59Q207.90 2.75 207.90 0.80L207.90 0.80L207.90-1.45L207.90-1.45Q206.55 0.20 204.23 0.20L204.23 0.20L204.23 0.20Q201.55 0.20 200.06-1.46L200.06-1.46L200.06-1.46Q198.58-3.13 198.58-6.23L198.58-6.23L198.58-6.23Q198.58-9.45 200.34-11.26L200.34-11.26L200.34-11.26Q202.10-13.08 205.18-13.08L205.18-13.08L205.18-13.08Q206.80-13.08 208.30-12.60L208.30-12.60L208.38-12.88ZM204.38-1.65L204.38-1.65Q205.68-1.65 206.61-2.36L206.61-2.36L206.61-2.36Q207.55-3.08 207.90-4.35L207.90-4.35L207.90-10.85L207.90-10.85Q206.63-11.23 205.20-11.23L205.20-11.23L205.20-11.23Q203.23-11.23 202.10-9.91L202.10-9.91L202.10-9.91Q200.98-8.60 200.98-6.23L200.98-6.23L200.98-6.23Q200.98-4.03 201.86-2.84L201.86-2.84L201.86-2.84Q202.75-1.65 204.38-1.65L204.38-1.65ZM213.48-6.45L213.48-6.45Q213.48-9.60 215.05-11.34L215.05-11.34L215.05-11.34Q216.63-13.08 219.50-13.08L219.50-13.08L219.50-13.08Q222.33-13.08 223.59-11.39L223.59-11.39L223.59-11.39Q224.85-9.70 224.85-6.53L224.85-6.53L224.85-6.13L215.88-6.13L215.88-6.13Q215.93-3.95 216.90-2.80L216.90-2.80L216.90-2.80Q217.88-1.65 219.70-1.65L219.70-1.65L219.70-1.65Q220.70-1.65 221.63-1.89L221.63-1.89L221.63-1.89Q222.55-2.13 223.68-2.63L223.68-2.63L224.35-1.03L224.35-1.03Q223.08-0.38 221.93-0.09L221.93-0.09L221.93-0.09Q220.78 0.20 219.58 0.20L219.58 0.20L219.58 0.20Q216.68 0.20 215.08-1.55L215.08-1.55L215.08-1.55Q213.48-3.30 213.48-6.45L213.48-6.45ZM219.50-11.23L219.50-11.23Q218.03-11.23 217.14-10.38L217.14-10.38L217.14-10.38Q216.25-9.53 215.98-7.88L215.98-7.88L222.38-7.88L222.38-7.88Q222.20-9.60 221.50-10.41L221.50-10.41L221.50-10.41Q220.80-11.23 219.50-11.23L219.50-11.23ZM227.93-12.85L229.83-12.85L230.10-11.08L230.10-11.08Q231.45-13.08 233.65-13.08L233.65-13.08L233.65-13.08Q234.35-13.08 235.30-12.83L235.30-12.83L234.93-10.73L234.93-10.73Q233.85-10.98 233.25-10.98L233.25-10.98L233.25-10.98Q232.20-10.98 231.51-10.56L231.51-10.56L231.51-10.56Q230.83-10.15 230.28-9.18L230.28-9.18L230.28 0L227.93 0L227.93-12.85Z" fill="url(#editing-gradow-gradient)"></path></g></g></svg>
